<svg id="Layer_1" data-name="Layer 1" xmlns="http://www.w3.org/2000/svg" viewBox="0 0 14.4 18.09"><defs><style>.cls-1{fill:#082b84;}</style></defs><title>blue</title><path class="cls-1" d="M968.43,469.9l-4.67-4.44a.55.55,0,0,0-.4-.16H954.8a.57.57,0,0,0-.58.57v16.94a.58.58,0,0,0,.58.58H968a.58.58,0,0,0,.58-.58V470.32A.56.56,0,0,0,968.43,469.9Zm-11.88-.5h5.15a.57.57,0,0,1,.57.58V470a.57.57,0,0,1-.57.58h-5.15A.58.58,0,0,1,956,470V470A.58.58,0,0,1,956.55,469.4ZM965.6,480h-9.05a.58.58,0,0,1-.58-.58v-.06a.58.58,0,0,1,.58-.58h9.05a.57.57,0,0,1,.57.58v.06A.57.57,0,0,1,965.6,480Zm0-2.36h-9.05A.58.58,0,0,1,956,477V477a.58.58,0,0,1,.58-.58h9.05a.57.57,0,0,1,.57.58V477A.57.57,0,0,1,965.6,477.59Zm0-2.26h-9.05a.57.57,0,0,1-.58-.57v-.06a.58.58,0,0,1,.58-.58h9.05a.57.57,0,0,1,.57.58v.06A.56.56,0,0,1,965.6,475.33Zm0-2.35h-9.05a.58.58,0,0,1-.58-.58v-.06a.58.58,0,0,1,.58-.58h9.05a.57.57,0,0,1,.57.58v.06A.57.57,0,0,1,965.6,473Z" transform="translate(-954.21 -465.3)"/></svg>