<svg id="Layer_1" data-name="Layer 1" xmlns="http://www.w3.org/2000/svg" viewBox="0 0 14.4 18.09"><defs><style>.cls-1{fill:#fff;}</style></defs><title>white</title><path class="cls-1" d="M900.43,510.9l-4.67-4.44a.55.55,0,0,0-.4-.16H886.8a.57.57,0,0,0-.58.57v16.94a.58.58,0,0,0,.58.58H900a.58.58,0,0,0,.58-.58V511.32A.56.56,0,0,0,900.43,510.9Zm-11.88-.5h5.15a.57.57,0,0,1,.57.58V511a.57.57,0,0,1-.57.58h-5.15A.58.58,0,0,1,888,511V511A.58.58,0,0,1,888.55,510.4ZM897.6,521h-9.05a.58.58,0,0,1-.58-.58v-.06a.58.58,0,0,1,.58-.58h9.05a.57.57,0,0,1,.57.58v.06A.57.57,0,0,1,897.6,521Zm0-2.36h-9.05A.58.58,0,0,1,888,518V518a.58.58,0,0,1,.58-.58h9.05a.57.57,0,0,1,.57.58V518A.57.57,0,0,1,897.6,518.59Zm0-2.26h-9.05a.57.57,0,0,1-.58-.57v-.06a.58.58,0,0,1,.58-.58h9.05a.57.57,0,0,1,.57.58v.06A.56.56,0,0,1,897.6,516.33Zm0-2.35h-9.05a.58.58,0,0,1-.58-.58v-.06a.58.58,0,0,1,.58-.58h9.05a.57.57,0,0,1,.57.58v.06A.57.57,0,0,1,897.6,514Z" transform="translate(-886.21 -506.3)"/></svg>